<?xml version="1.0" standalone="no"?>
<svg xmlns="http://www.w3.org/2000/svg">
    <defs>
        <symbol id="linkedin-square" viewBox="0 0 40 40">
            <path fill="#F8F2F1" d="M37.143 0H2.848C1.277 0 0 1.295 0 2.884v34.232C0 38.706 1.277 40 2.848 40h34.295C38.714 40 40 38.705 40 37.116V2.884C40 1.294 38.714 0 37.143 0ZM12.089 34.286H6.161v-19.09h5.937v19.09h-.009ZM9.125 12.589a3.439 3.439 0 0 1-3.438-3.437 3.439 3.439 0 0 1 3.438-3.438 3.445 3.445 0 0 1 3.438 3.438 3.433 3.433 0 0 1-3.438 3.437Zm25.188 21.697h-5.93V25c0-2.214-.044-5.063-3.08-5.063-3.089 0-3.562 2.411-3.562 4.902v9.447h-5.928v-19.09H21.5v2.608h.08c.795-1.5 2.733-3.08 5.616-3.08 6 0 7.116 3.955 7.116 9.097v10.465Z" />
        </symbol>
        <symbol id="github" viewBox="0 0 51 50">
            <path fill="#F8F2F1" d="M45.5 0H6.214A5.359 5.359 0 0 0 .857 5.357v39.286C.857 47.6 3.257 50 6.214 50H45.5c2.958 0 5.357-2.4 5.357-5.357V5.357C50.857 2.4 48.457 0 45.5 0ZM31.806 42.824c-.938.167-1.284-.413-1.284-.893 0-.603.023-3.683.023-6.172 0-1.741-.58-2.846-1.262-3.426 4.13-.458 8.483-1.027 8.483-8.159 0-2.031-.726-3.047-1.909-4.353.19-.48.826-2.455-.19-5.022-1.55-.48-5.1 1.998-5.1 1.998a17.385 17.385 0 0 0-4.643-.625c-1.573 0-3.17.212-4.643.625 0 0-3.549-2.478-5.1-1.998-1.016 2.556-.39 4.531-.19 5.022-1.183 1.306-1.741 2.322-1.741 4.353 0 7.098 4.163 7.701 8.292 8.159-.535.48-1.015 1.305-1.183 2.488-1.06.48-3.772 1.306-5.39-1.55-1.016-1.764-2.846-1.91-2.846-1.91C11.315 31.34 13 32.5 13 32.5c1.205.558 2.054 2.7 2.054 2.7 1.082 3.316 6.26 2.2 6.26 2.2 0 1.55.023 4.073.023 4.53 0 .48-.335 1.061-1.283.894C12.688 40.357 7.53 33.348 7.53 25.156c0-10.245 7.835-18.024 18.08-18.024 10.246 0 18.55 7.779 18.55 18.024.01 8.192-4.99 15.212-12.355 17.668Zm-10.949-6.82c-.212.045-.413-.044-.435-.19-.022-.167.123-.312.335-.356.212-.023.413.067.435.212.034.145-.112.29-.335.334Zm-1.06-.1c0 .145-.168.268-.39.268-.246.022-.414-.1-.414-.268 0-.145.168-.268.391-.268.212-.022.413.1.413.268Zm-1.53-.123c-.044.145-.267.212-.457.145-.212-.044-.357-.212-.312-.357.044-.145.268-.212.457-.167.224.067.369.234.313.38Zm-1.372-.602c-.1.122-.312.1-.48-.067-.167-.145-.212-.358-.1-.458.1-.123.312-.1.48.067.145.145.2.368.1.458Zm-1.015-1.016c-.1.067-.29 0-.413-.167-.123-.168-.123-.358 0-.436.122-.1.312-.022.412.145.123.168.123.369 0 .458Zm-.726-1.083c-.1.1-.268.045-.39-.067-.123-.145-.146-.312-.045-.39.1-.1.268-.045.39.067.123.145.146.312.045.39Zm-.748-.825c-.044.1-.19.122-.312.044-.145-.067-.212-.19-.168-.29.045-.067.168-.1.313-.045.145.078.212.201.167.29Z" />
        </symbol>
        <symbol id="codepen" viewBox="0 0 51 50">
            <rect width="50" height="50" x=".714" fill="#F8F2F1" rx="4.286"/><g clip-path="url(#a)"><path fill="#2BAA6D" fill-rule="evenodd" d="M40.502 27.568 36.663 25l3.84-2.568v5.136ZM27.25 38.454v-7.157l6.654-4.45 5.37 3.592-12.024 8.015Zm-1.535-9.823L20.287 25l5.427-3.63L31.143 25l-5.429 3.63Zm-1.534 9.823L12.155 30.44l5.372-3.592 6.653 4.45v7.157ZM10.926 22.432 14.766 25l-3.84 2.568v-5.136ZM24.18 11.546v7.157l-6.653 4.451-5.372-3.593 12.025-8.015Zm3.069 0 12.024 8.015-5.37 3.593-6.654-4.45v-7.158Zm16.31 7.813c-.004-.023-.01-.044-.013-.067-.008-.043-.016-.087-.027-.128-.007-.026-.017-.05-.024-.075a1.885 1.885 0 0 0-.04-.111.765.765 0 0 0-.034-.075.792.792 0 0 0-.053-.102c-.013-.024-.029-.048-.043-.071a1.075 1.075 0 0 0-.117-.16 1.356 1.356 0 0 0-.077-.083c-.02-.02-.04-.042-.06-.06a2.566 2.566 0 0 0-.088-.073c-.023-.018-.045-.036-.069-.053-.009-.005-.017-.013-.026-.019L26.566 7.401a1.535 1.535 0 0 0-1.703 0L8.54 18.282l-.025.02a1.357 1.357 0 0 0-.156.126c-.022.017-.042.038-.062.059a1.075 1.075 0 0 0-.076.083.967.967 0 0 0-.117.16 1.542 1.542 0 0 0-.097.173c-.011.023-.024.049-.034.075a1.315 1.315 0 0 0-.04.111c-.008.025-.017.05-.023.075-.011.041-.02.085-.027.128-.005.023-.01.044-.012.067a1.463 1.463 0 0 0-.015.2v10.882c0 .067.006.134.015.2.002.022.008.044.012.067.008.043.016.086.027.128.006.026.015.05.023.075.012.037.025.074.04.112.01.025.023.05.034.074.017.035.033.068.052.103l.045.07a1.337 1.337 0 0 0 .193.242 1.357 1.357 0 0 0 .218.186l.025.02 16.322 10.881a1.533 1.533 0 0 0 1.703 0l16.322-10.881c.01-.006.017-.014.026-.02l.07-.052.086-.073c.022-.02.04-.04.06-.06a1.336 1.336 0 0 0 .195-.243l.043-.07c.02-.035.037-.068.053-.103a1.11 1.11 0 0 0 .034-.074c.015-.038.027-.075.04-.112l.024-.075c.011-.042.019-.085.027-.128.003-.023.009-.045.012-.066.009-.067.014-.134.014-.201V19.559c0-.068-.005-.135-.014-.2Z" clip-rule="evenodd"/></g><defs><clipPath id="a"><path fill="#fff" d="M7.857 7.143h35.714v35.714H7.857z"/></clipPath></defs>
        </symbol>
        <symbol id="mail" viewBox="0 0 51 50">
            <path fill="#F8F2F1" d="M43.429 0H7.714A7.14 7.14 0 0 0 .571 7.143v35.714A7.138 7.138 0 0 0 7.714 50H43.43a7.138 7.138 0 0 0 7.142-7.143V7.143A7.137 7.137 0 0 0 43.43 0Zm0 33.929c0 1.972-1.6 3.571-3.572 3.571H11.286a3.572 3.572 0 0 1-3.572-3.571V21.64l15.458 7.73a5.438 5.438 0 0 0 2.4.562c.825 0 1.646-.188 2.396-.563l15.46-7.73V33.93Zm0-16.284-17.054 8.53a1.787 1.787 0 0 1-1.597 0l-17.064-8.53v-1.574c0-1.972 1.6-3.571 3.572-3.571h28.571c1.972 0 3.572 1.6 3.572 3.571v1.574Z"/>
        </symbol>
    </defs>
</svg>
