<?xml version="1.0" standalone="no"?>
<svg xmlns="http://www.w3.org/2000/svg">
    <defs>
    <!-- Generated by IcoMoon -->
        <symbol id="linkedin-square" viewBox="0 0 40 40">
            <path fill="currentColor" d="M37.143 0H2.848C1.277 0 0 1.295 0 2.884v34.232C0 38.706 1.277 40 2.848 40h34.295C38.714 40 40 38.705 40 37.116V2.884C40 1.294 38.714 0 37.143 0ZM12.089 34.286H6.161v-19.09h5.937v19.09h-.009ZM9.125 12.589a3.439 3.439 0 0 1-3.438-3.437 3.439 3.439 0 0 1 3.438-3.438 3.445 3.445 0 0 1 3.438 3.438 3.433 3.433 0 0 1-3.438 3.437Zm25.188 21.697h-5.93V25c0-2.214-.044-5.063-3.08-5.063-3.089 0-3.562 2.411-3.562 4.902v9.447h-5.928v-19.09H21.5v2.608h.08c.795-1.5 2.733-3.08 5.616-3.08 6 0 7.116 3.955 7.116 9.097v10.465Z" />
        </symbol>
        <symbol id="github" viewBox="0 0 51 50">
            <path fill="currentColor" d="M45.5 0H6.214A5.359 5.359 0 0 0 .857 5.357v39.286C.857 47.6 3.257 50 6.214 50H45.5c2.958 0 5.357-2.4 5.357-5.357V5.357C50.857 2.4 48.457 0 45.5 0ZM31.806 42.824c-.938.167-1.284-.413-1.284-.893 0-.603.023-3.683.023-6.172 0-1.741-.58-2.846-1.262-3.426 4.13-.458 8.483-1.027 8.483-8.159 0-2.031-.726-3.047-1.909-4.353.19-.48.826-2.455-.19-5.022-1.55-.48-5.1 1.998-5.1 1.998a17.385 17.385 0 0 0-4.643-.625c-1.573 0-3.17.212-4.643.625 0 0-3.549-2.478-5.1-1.998-1.016 2.556-.39 4.531-.19 5.022-1.183 1.306-1.741 2.322-1.741 4.353 0 7.098 4.163 7.701 8.292 8.159-.535.48-1.015 1.305-1.183 2.488-1.06.48-3.772 1.306-5.39-1.55-1.016-1.764-2.846-1.91-2.846-1.91C11.315 31.34 13 32.5 13 32.5c1.205.558 2.054 2.7 2.054 2.7 1.082 3.316 6.26 2.2 6.26 2.2 0 1.55.023 4.073.023 4.53 0 .48-.335 1.061-1.283.894C12.688 40.357 7.53 33.348 7.53 25.156c0-10.245 7.835-18.024 18.08-18.024 10.246 0 18.55 7.779 18.55 18.024.01 8.192-4.99 15.212-12.355 17.668Zm-10.949-6.82c-.212.045-.413-.044-.435-.19-.022-.167.123-.312.335-.356.212-.023.413.067.435.212.034.145-.112.29-.335.334Zm-1.06-.1c0 .145-.168.268-.39.268-.246.022-.414-.1-.414-.268 0-.145.168-.268.391-.268.212-.022.413.1.413.268Zm-1.53-.123c-.044.145-.267.212-.457.145-.212-.044-.357-.212-.312-.357.044-.145.268-.212.457-.167.224.067.369.234.313.38Zm-1.372-.602c-.1.122-.312.1-.48-.067-.167-.145-.212-.358-.1-.458.1-.123.312-.1.48.067.145.145.2.368.1.458Zm-1.015-1.016c-.1.067-.29 0-.413-.167-.123-.168-.123-.358 0-.436.122-.1.312-.022.412.145.123.168.123.369 0 .458Zm-.726-1.083c-.1.1-.268.045-.39-.067-.123-.145-.146-.312-.045-.39.1-.1.268-.045.39.067.123.145.146.312.045.39Zm-.748-.825c-.044.1-.19.122-.312.044-.145-.067-.212-.19-.168-.29.045-.067.168-.1.313-.045.145.078.212.201.167.29Z" />
        </symbol>
        <symbol id="codepen" viewBox="0 0 51 50">
            <rect width="50" height="50" x=".714" fill="currentColor" rx="4.286"/><g clip-path="url(#a)"><path fill="#2BAA6D" fill-rule="evenodd" d="M40.502 27.568 36.663 25l3.84-2.568v5.136ZM27.25 38.454v-7.157l6.654-4.45 5.37 3.592-12.024 8.015Zm-1.535-9.823L20.287 25l5.427-3.63L31.143 25l-5.429 3.63Zm-1.534 9.823L12.155 30.44l5.372-3.592 6.653 4.45v7.157ZM10.926 22.432 14.766 25l-3.84 2.568v-5.136ZM24.18 11.546v7.157l-6.653 4.451-5.372-3.593 12.025-8.015Zm3.069 0 12.024 8.015-5.37 3.593-6.654-4.45v-7.158Zm16.31 7.813c-.004-.023-.01-.044-.013-.067-.008-.043-.016-.087-.027-.128-.007-.026-.017-.05-.024-.075a1.885 1.885 0 0 0-.04-.111.765.765 0 0 0-.034-.075.792.792 0 0 0-.053-.102c-.013-.024-.029-.048-.043-.071a1.075 1.075 0 0 0-.117-.16 1.356 1.356 0 0 0-.077-.083c-.02-.02-.04-.042-.06-.06a2.566 2.566 0 0 0-.088-.073c-.023-.018-.045-.036-.069-.053-.009-.005-.017-.013-.026-.019L26.566 7.401a1.535 1.535 0 0 0-1.703 0L8.54 18.282l-.025.02a1.357 1.357 0 0 0-.156.126c-.022.017-.042.038-.062.059a1.075 1.075 0 0 0-.076.083.967.967 0 0 0-.117.16 1.542 1.542 0 0 0-.097.173c-.011.023-.024.049-.034.075a1.315 1.315 0 0 0-.04.111c-.008.025-.017.05-.023.075-.011.041-.02.085-.027.128-.005.023-.01.044-.012.067a1.463 1.463 0 0 0-.015.2v10.882c0 .067.006.134.015.2.002.022.008.044.012.067.008.043.016.086.027.128.006.026.015.05.023.075.012.037.025.074.04.112.01.025.023.05.034.074.017.035.033.068.052.103l.045.07a1.337 1.337 0 0 0 .193.242 1.357 1.357 0 0 0 .218.186l.025.02 16.322 10.881a1.533 1.533 0 0 0 1.703 0l16.322-10.881c.01-.006.017-.014.026-.02l.07-.052.086-.073c.022-.02.04-.04.06-.06a1.336 1.336 0 0 0 .195-.243l.043-.07c.02-.035.037-.068.053-.103a1.11 1.11 0 0 0 .034-.074c.015-.038.027-.075.04-.112l.024-.075c.011-.042.019-.085.027-.128.003-.023.009-.045.012-.066.009-.067.014-.134.014-.201V19.559c0-.068-.005-.135-.014-.2Z" clip-rule="evenodd"/></g><defs><clipPath id="a"><path fill="#fff" d="M7.857 7.143h35.714v35.714H7.857z"/></clipPath></defs>
        </symbol>
        <symbol id="codepen-white" viewBox="0 0 51 50">
            <rect width="50" height="50" x=".714" fill="currentColor" rx="4.286"/><g clip-path="url(#a)"><path fill="#F8F2F1" fill-rule="evenodd" d="M40.502 27.568 36.663 25l3.84-2.568v5.136ZM27.25 38.454v-7.157l6.654-4.45 5.37 3.592-12.024 8.015Zm-1.535-9.823L20.287 25l5.427-3.63L31.143 25l-5.429 3.63Zm-1.534 9.823L12.155 30.44l5.372-3.592 6.653 4.45v7.157ZM10.926 22.432 14.766 25l-3.84 2.568v-5.136ZM24.18 11.546v7.157l-6.653 4.451-5.372-3.593 12.025-8.015Zm3.069 0 12.024 8.015-5.37 3.593-6.654-4.45v-7.158Zm16.31 7.813c-.004-.023-.01-.044-.013-.067-.008-.043-.016-.087-.027-.128-.007-.026-.017-.05-.024-.075a1.885 1.885 0 0 0-.04-.111.765.765 0 0 0-.034-.075.792.792 0 0 0-.053-.102c-.013-.024-.029-.048-.043-.071a1.075 1.075 0 0 0-.117-.16 1.356 1.356 0 0 0-.077-.083c-.02-.02-.04-.042-.06-.06a2.566 2.566 0 0 0-.088-.073c-.023-.018-.045-.036-.069-.053-.009-.005-.017-.013-.026-.019L26.566 7.401a1.535 1.535 0 0 0-1.703 0L8.54 18.282l-.025.02a1.357 1.357 0 0 0-.156.126c-.022.017-.042.038-.062.059a1.075 1.075 0 0 0-.076.083.967.967 0 0 0-.117.16 1.542 1.542 0 0 0-.097.173c-.011.023-.024.049-.034.075a1.315 1.315 0 0 0-.04.111c-.008.025-.017.05-.023.075-.011.041-.02.085-.027.128-.005.023-.01.044-.012.067a1.463 1.463 0 0 0-.015.2v10.882c0 .067.006.134.015.2.002.022.008.044.012.067.008.043.016.086.027.128.006.026.015.05.023.075.012.037.025.074.04.112.01.025.023.05.034.074.017.035.033.068.052.103l.045.07a1.337 1.337 0 0 0 .193.242 1.357 1.357 0 0 0 .218.186l.025.02 16.322 10.881a1.533 1.533 0 0 0 1.703 0l16.322-10.881c.01-.006.017-.014.026-.02l.07-.052.086-.073c.022-.02.04-.04.06-.06a1.336 1.336 0 0 0 .195-.243l.043-.07c.02-.035.037-.068.053-.103a1.11 1.11 0 0 0 .034-.074c.015-.038.027-.075.04-.112l.024-.075c.011-.042.019-.085.027-.128.003-.023.009-.045.012-.066.009-.067.014-.134.014-.201V19.559c0-.068-.005-.135-.014-.2Z" clip-rule="evenodd"/></g><defs><clipPath id="a"><path fill="#fff" d="M7.857 7.143h35.714v35.714H7.857z"/></clipPath></defs>
        </symbol>
        <symbol id="mail" viewBox="0 0 51 50">
            <path fill="currentColor" d="M43.429 0H7.714A7.14 7.14 0 0 0 .571 7.143v35.714A7.138 7.138 0 0 0 7.714 50H43.43a7.138 7.138 0 0 0 7.142-7.143V7.143A7.137 7.137 0 0 0 43.43 0Zm0 33.929c0 1.972-1.6 3.571-3.572 3.571H11.286a3.572 3.572 0 0 1-3.572-3.571V21.64l15.458 7.73a5.438 5.438 0 0 0 2.4.562c.825 0 1.646-.188 2.396-.563l15.46-7.73V33.93Zm0-16.284-17.054 8.53a1.787 1.787 0 0 1-1.597 0l-17.064-8.53v-1.574c0-1.972 1.6-3.571 3.572-3.571h28.571c1.972 0 3.572 1.6 3.572 3.571v1.574Z"/>
        </symbol>
    <!-- ! Font Awesome Free 6.4.2 by @fontawesome - https://fontawesome.com License - https://fontawesome.com/license (Commercial License) Copyright 2023 Fonticons, Inc. -->
        <symbol id="js" viewBox="0 0 448 512">
            <path fill="#currentColor" d="M400 32H48C21.5 32 0 53.5 0 80v352c0 26.5 21.5 48 48 48h352c26.5 0 48-21.5 48-48V80c0-26.5-21.5-48-48-48zM243.8 381.4c0 43.6-25.6 63.5-62.9 63.5-33.7 0-53.2-17.4-63.2-38.5l34.3-20.7c6.6 11.7 12.6 21.6 27.1 21.6 13.8 0 22.6-5.4 22.6-26.5V237.7h42.1v143.7zm99.6 63.5c-39.1 0-64.4-18.6-76.7-43l34.3-19.8c9 14.7 20.8 25.6 41.5 25.6 17.4 0 28.6-8.7 28.6-20.8 0-14.4-11.4-19.5-30.7-28l-10.5-4.5c-30.4-12.9-50.5-29.2-50.5-63.5 0-31.6 24.1-55.6 61.6-55.6 26.8 0 46 9.3 59.8 33.7L368 290c-7.2-12.9-15-18-27.1-18-12.3 0-20.1 7.8-20.1 18 0 12.6 7.8 17.7 25.9 25.6l10.5 4.5c35.8 15.3 55.9 31 55.9 66.2 0 37.8-29.8 58.6-69.7 58.6z"/>
        </symbol>
        <symbol id="html" viewBox="0 0 384 512">
            <path fill="#currentColor" d="M0 32l34.9 395.8L191.5 480l157.6-52.2L384 32H0zm308.2 127.9H124.4l4.1 49.4h175.6l-13.6 148.4-97.9 27v.3h-1.1l-98.7-27.3-6-75.8h47.7L138 320l53.5 14.5 53.7-14.5 6-62.2H84.3L71.5 112.2h241.1l-4.4 47.7z"/>
        </symbol>
        <symbol id="css" viewBox="0 0 512 512">
            <path fill="#currentColor" d="M480 32l-64 368-223.3 80L0 400l19.6-94.8h82l-8 40.6L210 390.2l134.1-44.4 18.8-97.1H29.5l16-82h333.7l10.5-52.7H56.3l16.3-82H480z" />
        </symbol>
        <symbol id="scss" viewBox="0 0 640 512">
            <path fill="#currentColor" d="M301.84 378.92c-.3.6-.6 1.08 0 0zm249.13-87a131.16 131.16 0 0 0-58 13.5c-5.9-11.9-12-22.3-13-30.1-1.2-9.1-2.5-14.5-1.1-25.3s7.7-26.1 7.6-27.2-1.4-6.6-14.3-6.7-24 2.5-25.29 5.9a122.83 122.83 0 0 0-5.3 19.1c-2.3 11.7-25.79 53.5-39.09 75.3-4.4-8.5-8.1-16-8.9-22-1.2-9.1-2.5-14.5-1.1-25.3s7.7-26.1 7.6-27.2-1.4-6.6-14.29-6.7-24 2.5-25.3 5.9-2.7 11.4-5.3 19.1-33.89 77.3-42.08 95.4c-4.2 9.2-7.8 16.6-10.4 21.6-.4.8-.7 1.3-.9 1.7.3-.5.5-1 .5-.8-2.2 4.3-3.5 6.7-3.5 6.7v.1c-1.7 3.2-3.6 6.1-4.5 6.1-.6 0-1.9-8.4.3-19.9 4.7-24.2 15.8-61.8 15.7-63.1-.1-.7 2.1-7.2-7.3-10.7-9.1-3.3-12.4 2.2-13.2 2.2s-1.4 2-1.4 2 10.1-42.4-19.39-42.4c-18.4 0-44 20.2-56.58 38.5-7.9 4.3-25 13.6-43 23.5-6.9 3.8-14 7.7-20.7 11.4-.5-.5-.9-1-1.4-1.5-35.79-38.2-101.87-65.2-99.07-116.5 1-18.7 7.5-67.8 127.07-127.4 98-48.8 176.35-35.4 189.84-5.6 19.4 42.5-41.89 121.6-143.66 133-38.79 4.3-59.18-10.7-64.28-16.3-5.3-5.9-6.1-6.2-8.1-5.1-3.3 1.8-1.2 7 0 10.1 3 7.9 15.5 21.9 36.79 28.9 18.7 6.1 64.18 9.5 119.17-11.8 61.78-23.8 109.87-90.1 95.77-145.6C386.52 18.32 293-.18 204.57 31.22c-52.69 18.7-109.67 48.1-150.66 86.4-48.69 45.6-56.48 85.3-53.28 101.9 11.39 58.9 92.57 97.3 125.06 125.7-1.6.9-3.1 1.7-4.5 2.5-16.29 8.1-78.18 40.5-93.67 74.7-17.5 38.8 2.9 66.6 16.29 70.4 41.79 11.6 84.58-9.3 107.57-43.6s20.2-79.1 9.6-99.5c-.1-.3-.3-.5-.4-.8 4.2-2.5 8.5-5 12.8-7.5 8.29-4.9 16.39-9.4 23.49-13.3-4 10.8-6.9 23.8-8.4 42.6-1.8 22 7.3 50.5 19.1 61.7 5.2 4.9 11.49 5 15.39 5 13.8 0 20-11.4 26.89-25 8.5-16.6 16-35.9 16-35.9s-9.4 52.2 16.3 52.2c9.39 0 18.79-12.1 23-18.3v.1s.2-.4.7-1.2c1-1.5 1.5-2.4 1.5-2.4v-.3c3.8-6.5 12.1-21.4 24.59-46 16.2-31.8 31.69-71.5 31.69-71.5a201.24 201.24 0 0 0 6.2 25.8c2.8 9.5 8.7 19.9 13.4 30-3.8 5.2-6.1 8.2-6.1 8.2a.31.31 0 0 0 .1.2c-3 4-6.4 8.3-9.9 12.5-12.79 15.2-28 32.6-30 37.6-2.4 5.9-1.8 10.3 2.8 13.7 3.4 2.6 9.4 3 15.69 2.5 11.5-.8 19.6-3.6 23.5-5.4a82.2 82.2 0 0 0 20.19-10.6c12.5-9.2 20.1-22.4 19.4-39.8-.4-9.6-3.5-19.2-7.3-28.2 1.1-1.6 2.3-3.3 3.4-5C434.8 301.72 450.1 270 450.1 270a201.24 201.24 0 0 0 6.2 25.8c2.4 8.1 7.09 17 11.39 25.7-18.59 15.1-30.09 32.6-34.09 44.1-7.4 21.3-1.6 30.9 9.3 33.1 4.9 1 11.9-1.3 17.1-3.5a79.46 79.46 0 0 0 21.59-11.1c12.5-9.2 24.59-22.1 23.79-39.6-.3-7.9-2.5-15.8-5.4-23.4 15.7-6.6 36.09-10.2 62.09-7.2 55.68 6.5 66.58 41.3 64.48 55.8s-13.8 22.6-17.7 25-5.1 3.3-4.8 5.1c.5 2.6 2.3 2.5 5.6 1.9 4.6-.8 29.19-11.8 30.29-38.7 1.6-34-31.09-71.4-89-71.1zm-429.18 144.7c-18.39 20.1-44.19 27.7-55.28 21.3C54.61 451 59.31 421.42 82 400c13.8-13 31.59-25 43.39-32.4 2.7-1.6 6.6-4 11.4-6.9.8-.5 1.2-.7 1.2-.7.9-.6 1.9-1.1 2.9-1.7 8.29 30.4.3 57.2-19.1 78.3zm134.36-91.4c-6.4 15.7-19.89 55.7-28.09 53.6-7-1.8-11.3-32.3-1.4-62.3 5-15.1 15.6-33.1 21.9-40.1 10.09-11.3 21.19-14.9 23.79-10.4 3.5 5.9-12.2 49.4-16.2 59.2zm111 53c-2.7 1.4-5.2 2.3-6.4 1.6-.9-.5 1.1-2.4 1.1-2.4s13.9-14.9 19.4-21.7c3.2-4 6.9-8.7 10.89-13.9 0 .5.1 1 .1 1.6-.13 17.9-17.32 30-25.12 34.8zm85.58-19.5c-2-1.4-1.7-6.1 5-20.7 2.6-5.7 8.59-15.3 19-24.5a36.18 36.18 0 0 1 1.9 10.8c-.1 22.5-16.2 30.9-25.89 34.4z"/>
        </symbol>
        <symbol id="react" viewBox="0 0 640 512">
            <path fill="#currentColor" d="M418.2 177.2c-5.4-1.8-10.8-3.5-16.2-5.1.9-3.7 1.7-7.4 2.5-11.1 12.3-59.6 4.2-107.5-23.1-123.3-26.3-15.1-69.2.6-112.6 38.4-4.3 3.7-8.5 7.6-12.5 11.5-2.7-2.6-5.5-5.2-8.3-7.7-45.5-40.4-91.1-57.4-118.4-41.5-26.2 15.2-34 60.3-23 116.7 1.1 5.6 2.3 11.1 3.7 16.7-6.4 1.8-12.7 3.8-18.6 5.9C38.3 196.2 0 225.4 0 255.6c0 31.2 40.8 62.5 96.3 81.5 4.5 1.5 9 3 13.6 4.3-1.5 6-2.8 11.9-4 18-10.5 55.5-2.3 99.5 23.9 114.6 27 15.6 72.4-.4 116.6-39.1 3.5-3.1 7-6.3 10.5-9.7 4.4 4.3 9 8.4 13.6 12.4 42.8 36.8 85.1 51.7 111.2 36.6 27-15.6 35.8-62.9 24.4-120.5-.9-4.4-1.9-8.9-3-13.5 3.2-.9 6.3-1.9 9.4-2.9 57.7-19.1 99.5-50 99.5-81.7 0-30.3-39.4-59.7-93.8-78.4zM282.9 92.3c37.2-32.4 71.9-45.1 87.7-36 16.9 9.7 23.4 48.9 12.8 100.4-.7 3.4-1.4 6.7-2.3 10-22.2-5-44.7-8.6-67.3-10.6-13-18.6-27.2-36.4-42.6-53.1 3.9-3.7 7.7-7.2 11.7-10.7zM167.2 307.5c5.1 8.7 10.3 17.4 15.8 25.9-15.6-1.7-31.1-4.2-46.4-7.5 4.4-14.4 9.9-29.3 16.3-44.5 4.6 8.8 9.3 17.5 14.3 26.1zm-30.3-120.3c14.4-3.2 29.7-5.8 45.6-7.8-5.3 8.3-10.5 16.8-15.4 25.4-4.9 8.5-9.7 17.2-14.2 26-6.3-14.9-11.6-29.5-16-43.6zm27.4 68.9c6.6-13.8 13.8-27.3 21.4-40.6s15.8-26.2 24.4-38.9c15-1.1 30.3-1.7 45.9-1.7s31 .6 45.9 1.7c8.5 12.6 16.6 25.5 24.3 38.7s14.9 26.7 21.7 40.4c-6.7 13.8-13.9 27.4-21.6 40.8-7.6 13.3-15.7 26.2-24.2 39-14.9 1.1-30.4 1.6-46.1 1.6s-30.9-.5-45.6-1.4c-8.7-12.7-16.9-25.7-24.6-39s-14.8-26.8-21.5-40.6zm180.6 51.2c5.1-8.8 9.9-17.7 14.6-26.7 6.4 14.5 12 29.2 16.9 44.3-15.5 3.5-31.2 6.2-47 8 5.4-8.4 10.5-17 15.5-25.6zm14.4-76.5c-4.7-8.8-9.5-17.6-14.5-26.2-4.9-8.5-10-16.9-15.3-25.2 16.1 2 31.5 4.7 45.9 8-4.6 14.8-10 29.2-16.1 43.4zM256.2 118.3c10.5 11.4 20.4 23.4 29.6 35.8-19.8-.9-39.7-.9-59.5 0 9.8-12.9 19.9-24.9 29.9-35.8zM140.2 57c16.8-9.8 54.1 4.2 93.4 39 2.5 2.2 5 4.6 7.6 7-15.5 16.7-29.8 34.5-42.9 53.1-22.6 2-45 5.5-67.2 10.4-1.3-5.1-2.4-10.3-3.5-15.5-9.4-48.4-3.2-84.9 12.6-94zm-24.5 263.6c-4.2-1.2-8.3-2.5-12.4-3.9-21.3-6.7-45.5-17.3-63-31.2-10.1-7-16.9-17.8-18.8-29.9 0-18.3 31.6-41.7 77.2-57.6 5.7-2 11.5-3.8 17.3-5.5 6.8 21.7 15 43 24.5 63.6-9.6 20.9-17.9 42.5-24.8 64.5zm116.6 98c-16.5 15.1-35.6 27.1-56.4 35.3-11.1 5.3-23.9 5.8-35.3 1.3-15.9-9.2-22.5-44.5-13.5-92 1.1-5.6 2.3-11.2 3.7-16.7 22.4 4.8 45 8.1 67.9 9.8 13.2 18.7 27.7 36.6 43.2 53.4-3.2 3.1-6.4 6.1-9.6 8.9zm24.5-24.3c-10.2-11-20.4-23.2-30.3-36.3 9.6.4 19.5.6 29.5.6 10.3 0 20.4-.2 30.4-.7-9.2 12.7-19.1 24.8-29.6 36.4zm130.7 30c-.9 12.2-6.9 23.6-16.5 31.3-15.9 9.2-49.8-2.8-86.4-34.2-4.2-3.6-8.4-7.5-12.7-11.5 15.3-16.9 29.4-34.8 42.2-53.6 22.9-1.9 45.7-5.4 68.2-10.5 1 4.1 1.9 8.2 2.7 12.2 4.9 21.6 5.7 44.1 2.5 66.3zm18.2-107.5c-2.8.9-5.6 1.8-8.5 2.6-7-21.8-15.6-43.1-25.5-63.8 9.6-20.4 17.7-41.4 24.5-62.9 5.2 1.5 10.2 3.1 15 4.7 46.6 16 79.3 39.8 79.3 58 0 19.6-34.9 44.9-84.8 61.4zm-149.7-15c25.3 0 45.8-20.5 45.8-45.8s-20.5-45.8-45.8-45.8c-25.3 0-45.8 20.5-45.8 45.8s20.5 45.8 45.8 45.8z" />
        </symbol>
        <symbol id="angular" viewBox="0 0 448 512">
            <path fill="#currentColor" d="M185.7 268.1h76.2l-38.1-91.6-38.1 91.6zM223.8 32L16 106.4l31.8 275.7 176 97.9 176-97.9 31.8-275.7zM354 373.8h-48.6l-26.2-65.4H168.6l-26.2 65.4H93.7L223.8 81.5z"/>
        </symbol>
        <symbol id="typescript" viewBox="0 0 512 512">
            <rect fill="#currentColor" height="512" rx="50" width="512"/><rect fill="#3178c6" height="512" rx="50" width="512"/><path clip-rule="evenodd" d="M316.939 407.424v50.061c8.138 4.172 17.763 7.3 28.875 9.386S368.637 470 380.949 470c11.999 0 23.397-1.147 34.196-3.442 10.799-2.294 20.268-6.075 28.406-11.342 8.138-5.266 14.581-12.15 19.328-20.65S470 415.559 470 403.044c0-9.074-1.356-17.026-4.069-23.857s-6.625-12.906-11.738-18.225c-5.112-5.319-11.242-10.091-18.389-14.315s-15.207-8.213-24.18-11.967c-6.573-2.712-12.468-5.345-17.685-7.9-5.217-2.556-9.651-5.163-13.303-7.822-3.652-2.66-6.469-5.476-8.451-8.448-1.982-2.973-2.974-6.336-2.974-10.091 0-3.441.887-6.544 2.661-9.308s4.278-5.136 7.512-7.118c3.235-1.981 7.199-3.52 11.894-4.615 4.696-1.095 9.912-1.642 15.651-1.642 4.173 0 8.581.313 13.224.938 4.643.626 9.312 1.591 14.008 2.894a97.514 97.514 0 0 1 13.694 4.928c4.434 1.982 8.529 4.276 12.285 6.884v-46.776c-7.616-2.92-15.937-5.084-24.962-6.492S415.797 238 404.112 238c-11.895 0-23.163 1.278-33.805 3.833s-20.006 6.544-28.093 11.967c-8.086 5.424-14.476 12.333-19.171 20.729-4.695 8.395-7.043 18.433-7.043 30.114 0 14.914 4.304 27.638 12.912 38.172 8.607 10.533 21.675 19.45 39.204 26.751 6.886 2.816 13.303 5.579 19.25 8.291s11.086 5.528 15.415 8.448c4.33 2.92 7.747 6.101 10.252 9.543 2.504 3.441 3.756 7.352 3.756 11.733 0 3.233-.783 6.231-2.348 8.995s-3.939 5.162-7.121 7.196-7.147 3.624-11.894 4.771c-4.748 1.148-10.303 1.721-16.668 1.721-10.851 0-21.597-1.903-32.24-5.71-10.642-3.806-20.502-9.516-29.579-17.13zM232.78 284.082H297V243H118v41.082h63.906V467h50.874z" fill="#fff" fill-rule="evenodd"/>
        </symbol>
        <symbol id="figma" viewBox="0 0 384 512">
            <path fill="#currentColor" d="M14 95.7924C14 42.8877 56.8878 0 109.793 0H274.161C327.066 0 369.954 42.8877 369.954 95.7924C369.954 129.292 352.758 158.776 326.711 175.897C352.758 193.019 369.954 222.502 369.954 256.002C369.954 308.907 327.066 351.795 274.161 351.795H272.081C247.279 351.795 224.678 342.369 207.666 326.904V415.167C207.666 468.777 163.657 512 110.309 512C57.5361 512 14 469.243 14 416.207C14 382.709 31.1945 353.227 57.2392 336.105C31.1945 318.983 14 289.5 14 256.002C14 222.502 31.196 193.019 57.2425 175.897C31.196 158.776 14 129.292 14 95.7924ZM176.288 191.587H109.793C74.2172 191.587 45.3778 220.427 45.3778 256.002C45.3778 291.44 73.9948 320.194 109.381 320.416C109.518 320.415 109.655 320.415 109.793 320.415H176.288V191.587ZM207.666 256.002C207.666 291.577 236.505 320.417 272.081 320.417H274.161C309.737 320.417 338.576 291.577 338.576 256.002C338.576 220.427 309.737 191.587 274.161 191.587H272.081C236.505 191.587 207.666 220.427 207.666 256.002ZM109.793 351.795C109.655 351.795 109.518 351.794 109.381 351.794C73.9948 352.015 45.3778 380.769 45.3778 416.207C45.3778 451.652 74.6025 480.622 110.309 480.622C146.591 480.622 176.288 451.186 176.288 415.167V351.795H109.793ZM109.793 31.3778C74.2172 31.3778 45.3778 60.2173 45.3778 95.7924C45.3778 131.368 74.2172 160.207 109.793 160.207H176.288V31.3778H109.793ZM207.666 160.207H274.161C309.737 160.207 338.576 131.368 338.576 95.7924C338.576 60.2173 309.737 31.3778 274.161 31.3778H207.666V160.207Z"/>
        </symbol>
        <symbol id="markdown" viewBox="0 0 640 512">
            <path fill="#currentColor" d="M593.8 59.1H46.2C20.7 59.1 0 79.8 0 105.2v301.5c0 25.5 20.7 46.2 46.2 46.2h547.7c25.5 0 46.2-20.7 46.1-46.1V105.2c0-25.4-20.7-46.1-46.2-46.1zM338.5 360.6H277v-120l-61.5 76.9-61.5-76.9v120H92.3V151.4h61.5l61.5 76.9 61.5-76.9h61.5v209.2zm135.3 3.1L381.5 256H443V151.4h61.5V256H566z"/>
        </symbol>
        <symbol id="jira" viewBox="0 0 496 512">
            <path fill="#currentColor" d="M490 241.7C417.1 169 320.6 71.8 248.5 0 83 164.9 6 241.7 6 241.7c-7.9 7.9-7.9 20.7 0 28.7C138.8 402.7 67.8 331.9 248.5 512c379.4-378 15.7-16.7 241.5-241.7 8-7.9 8-20.7 0-28.6zm-241.5 90l-76-75.7 76-75.7 76 75.7-76 75.7z"/>
        </symbol>
        <symbol id="a11y" viewBox="0 0 512 512">
            <path fill="#currentColor" d="M0 256a256 256 0 1 1 512 0A256 256 0 1 1 0 256zm161.5-86.1c-12.2-5.2-26.3 .4-31.5 12.6s.4 26.3 12.6 31.5l11.9 5.1c17.3 7.4 35.2 12.9 53.6 16.3v50.1c0 4.3-.7 8.6-2.1 12.6l-28.7 86.1c-4.2 12.6 2.6 26.2 15.2 30.4s26.2-2.6 30.4-15.2l24.4-73.2c1.3-3.8 4.8-6.4 8.8-6.4s7.6 2.6 8.8 6.4l24.4 73.2c4.2 12.6 17.8 19.4 30.4 15.2s19.4-17.8 15.2-30.4l-28.7-86.1c-1.4-4.1-2.1-8.3-2.1-12.6V235.5c18.4-3.5 36.3-8.9 53.6-16.3l11.9-5.1c12.2-5.2 17.8-19.3 12.6-31.5s-19.3-17.8-31.5-12.6L338.7 175c-26.1 11.2-54.2 17-82.7 17s-56.5-5.8-82.7-17l-11.9-5.1zM256 160a40 40 0 1 0 0-80 40 40 0 1 0 0 80z"/>
        </symbol>
        <symbol id="group" viewBox="0 0 640 512">
            <path fill="#currentColor" d="M72 88a56 56 0 1 1 112 0A56 56 0 1 1 72 88zM64 245.7C54 256.9 48 271.8 48 288s6 31.1 16 42.3V245.7zm144.4-49.3C178.7 222.7 160 261.2 160 304c0 34.3 12 65.8 32 90.5V416c0 17.7-14.3 32-32 32H96c-17.7 0-32-14.3-32-32V389.2C26.2 371.2 0 332.7 0 288c0-61.9 50.1-112 112-112h32c24 0 46.2 7.5 64.4 20.3zM448 416V394.5c20-24.7 32-56.2 32-90.5c0-42.8-18.7-81.3-48.4-107.7C449.8 183.5 472 176 496 176h32c61.9 0 112 50.1 112 112c0 44.7-26.2 83.2-64 101.2V416c0 17.7-14.3 32-32 32H480c-17.7 0-32-14.3-32-32zm8-328a56 56 0 1 1 112 0A56 56 0 1 1 456 88zM576 245.7v84.7c10-11.3 16-26.1 16-42.3s-6-31.1-16-42.3zM320 32a64 64 0 1 1 0 128 64 64 0 1 1 0-128zM240 304c0 16.2 6 31 16 42.3V261.7c-10 11.3-16 26.1-16 42.3zm144-42.3v84.7c10-11.3 16-26.1 16-42.3s-6-31.1-16-42.3zM448 304c0 44.7-26.2 83.2-64 101.2V448c0 17.7-14.3 32-32 32H288c-17.7 0-32-14.3-32-32V405.2c-37.8-18-64-56.5-64-101.2c0-61.9 50.1-112 112-112h32c61.9 0 112 50.1 112 112z"/>
        </symbol>
        <symbol id="mobile" viewBox="0 0 384 512">
            <path fill="#currentColor" d="M16 64C16 28.7 44.7 0 80 0H304c35.3 0 64 28.7 64 64V448c0 35.3-28.7 64-64 64H80c-35.3 0-64-28.7-64-64V64zM144 448c0 8.8 7.2 16 16 16h64c8.8 0 16-7.2 16-16s-7.2-16-16-16H160c-8.8 0-16 7.2-16 16zM304 64H80V384H304V64z"/>
        </symbol>
    </defs>
</svg>